<?xml version="1.0" encoding="iso-8859-1"?>
<!-- Uploaded to: SVG Repo, www.svgrepo.com, Generator: SVG Repo Mixer Tools -->
<!DOCTYPE svg PUBLIC "-//W3C//DTD SVG 1.1//EN" "http://www.w3.org/Graphics/SVG/1.1/DTD/svg11.dtd">
<svg fill="#000000" version="1.1" id="Capa_1" xmlns="http://www.w3.org/2000/svg" xmlns:xlink="http://www.w3.org/1999/xlink" 
	 width="800px" height="800px" viewBox="0 0 547.998 547.999"
	 xml:space="preserve">
<g>
	<path d="M209.242,192.024c10.949-9.168,36.637-21.182,85.7,1.342c1.428,0.646,2.053,1.96,1.643,3.087
		c0,0.059,0.037,0.11,0.037,0.168c-0.094,1.176-1.703,20.439-12.279,36.938h-7.649c9.185-12.741,12.284-28.488,13.212-34.884
		c-14.253,0.122-26.962,3.948-38.116,9.794l25.445,10.622l-30.645-7.68c-4.291,2.595-8.335,5.472-12.125,8.522l26.941,9.313
		l-31.165-5.729c-3.241,2.887-6.291,5.864-9.11,8.875l8.531,2.595l-2.567,0.532v1.734l-9.381-1.085
		c-15.796,18.099-23.954,36.03-24.122,36.394c-0.567,1.279-2.369,1.83-4.042,1.242c-0.306-0.107-0.588-0.252-0.842-0.42
		c-1.108-0.719-1.615-1.914-1.155-2.94c0.684-1.528,8.774-19.303,24.435-37.372l0.693-20.899l4.053,15.709
		c2.231-2.343,4.592-4.66,7.083-6.926c-0.01-0.056-0.059-0.11-0.068-0.178c-0.009-0.166,0-0.333,0.021-0.487l3.909-25.389
		l1.988,21.018c3.958-3.194,8.195-6.181,12.722-8.886l6.973-16.354l-0.513,12.818c10.205-5.144,21.702-8.7,34.503-9.617
		c-37.341-14.794-58.191-7.451-69.271,1.822c-15.474,12.956-17.061,34.34-10.585,42.442c0.98,1.232,0.607,2.763-0.852,3.426
		c-1.137,0.511-2.595,0.336-3.65-0.352c-0.301-0.187-0.56-0.432-0.774-0.693C189.507,229.648,192.434,206.088,209.242,192.024z
		 M227.091,255.7v-5.104c-3.838-0.793-7.806-1.888-11.929-3.312c-1.673-0.588-3.475-0.021-4.032,1.251
		c-0.551,1.271,0.343,2.772,2.025,3.351C217.967,253.555,222.618,254.82,227.091,255.7z M323.979,228.936
		c-1.05-0.898-2.744-0.479-3.79,0.961c-1.068,1.449-2.049,2.891-2.996,4.329c1.662,0.532,3.239,1.195,4.729,1.988
		c0.695-1.018,1.334-2.035,2.086-3.062C325.053,231.727,325.034,229.844,323.979,228.936z M335.396,218.916
		c-0.317,0.128-0.626,0.315-0.887,0.539c-0.971,0.812-1.56,2.156-1.4,3.388c0.205,1.587,1.554,2.39,3.024,1.811
		c9.643-3.846,29.636,3.901,37.532,22.477c5.652,13.301,6.6,35.376-18.416,66.799c2.847-12.507,2.791-24.544,0.84-35.806
		l12.116,4.22l-13.623-11.428c-1.279-5.113-2.898-10.046-4.798-14.757l20.685,4.219l-23.149-11.126
		c-0.14-0.075-0.303-0.128-0.457-0.156c-0.07-0.019-0.131,0.009-0.196,0.009c-1.441-3.045-2.968-5.983-4.555-8.793l16.204,0.682
		l-19.798-6.728c-12.731-20.244-27.382-33.157-28.637-34.256c-0.859-0.738-2.147-0.598-3.165,0.252
		c-0.224,0.187-0.448,0.422-0.635,0.684c-1.045,1.431-1.045,3.314,0.01,4.231c0.299,0.261,15.074,13.28,27.797,33.668l-2.529,5.825
		c0.724,1.039,1.391,2.128,1.979,3.269l3.174-4.73c2.062,3.575,4.023,7.365,5.843,11.301l-5.227,10.118
		c-0.019,2.007-0.178,3.937-0.438,5.806l7.859-10.83c1.829,4.508,3.397,9.206,4.639,14.079l-16.274,27.078l17.567-21.244
		c2.353,12.357,2.31,25.631-1.728,39.306c-6.029-2.828-20.917-10.79-30.42-24.012c-2.016,0.751-4.148,1.292-6.422,1.624
		c12.293,19.634,35.601,28.926,36.861,29.412c0.061,0.019,0.121,0.009,0.177,0.019c0.962,0.723,2.399,0.499,3.436-0.677
		c35.814-40.38,31.792-68.457,26.21-81.6C370.025,223.394,348.342,213.754,335.396,218.916z M295.37,321.337
		c1.382-0.103,2.282-1.597,2.007-3.36c-1.671-10.632-4.583-19.723-8.643-27.33c-0.318-0.252-0.658-0.5-0.962-0.766v6.142h-1.997
		c3.015,6.329,5.245,13.769,6.599,22.355C292.641,320.124,293.989,321.45,295.37,321.337z M281.33,327.867
		c23.318,5.315,42.794,4.084,44.479,3.967c1.121-0.089,1.933-1.097,2.054-2.408c0.028-0.304,0.019-0.611-0.027-0.934
		c-0.271-1.755-1.605-3.089-2.997-2.986c-0.4,0.027-20.059,1.27-43.471-4.154l-9.43-23.933l4.487,22.71
		c-3.995-1.068-8.046-2.353-12.123-3.869l-6.721-21.095c-0.457,0.121-0.912,0.247-1.4,0.336l2.968,18.715
		c-4.483-1.891-8.914-4.103-13.238-6.679l-2.754-11.07c-1.026-0.019-2.044-0.037-3.033-0.084l0.744,7.953
		c-3.885-2.656-7.626-5.634-11.145-8.961l-2.641-0.336v-2.324c-4.828-5.013-9.176-10.753-12.791-17.39
		c2.695-0.98,7.236-2.437,12.791-3.587v-6.639c-9.979,1.904-17.091,4.966-17.756,5.257c-0.065,0.03-0.093,0.086-0.138,0.119
		c-1.185,0.159-2.056,1.334-1.951,2.894c3.232,53.895,25.923,70.893,39.157,76.242c20.33,8.204,42.494-0.309,47.987-13.115
		c0.131-0.308,0.215-0.653,0.252-1.008c0.112-1.26-0.429-2.623-1.409-3.379c-1.26-0.979-2.8-0.588-3.426,0.858
		c-4.084,9.53-23.708,18.197-42.424,10.646c-13.406-5.414-29.694-20.349-34.219-60.252c6.844,10.855,15.383,19.33,24.726,25.911
		l-11.546,5.582l17.707-1.545c4.515,2.712,9.157,5.05,13.826,7.047l-17.606,11.64l24.241-8.498c0.138-0.052,0.301-0.122,0.429-0.215
		c0.059-0.028,0.086-0.098,0.128-0.141c3.174,1.13,6.329,2.129,9.449,2.997l-11.948,10.968L281.33,327.867z M261.466,263.165v0.138
		c5.085,1.293,9.745,5.302,9.745,11.971c0,4.289-1.86,7.664-4.66,9.96c-3.444,3.006-9.099,4.504-17.921,4.504
		c-4.875,0-8.588-0.355-10.809-0.635v-47.511c2.791-0.567,7.875-0.999,12.825-0.999c6.515,0,10.529,0.784,13.826,3.083
		c3.017,1.792,5.015,4.947,5.015,9.028C269.487,257.149,266.696,261.235,261.466,263.165z M246.56,260.656h4.518
		c6.083,0,9.53-2.868,9.53-6.954c0-4.506-3.446-6.59-9.028-6.59c-2.585,0-4.086,0.147-5.024,0.364v13.18H246.56z M250.928,267.108
		h-4.369v15.768c1.148,0.136,2.663,0.215,4.66,0.215c5.668,0,10.667-2.156,10.667-8.102
		C261.887,269.402,257.023,267.108,250.928,267.108z M284.347,240.952h-8.825v48.295h8.825V240.952z M311.295,240.167
		c14.113,0,22.42,10.667,22.42,24.428c0,16.194-9.814,25.436-23.153,25.436c-13.608,0-22.201-10.39-22.201-24.572
		C288.36,250.629,297.676,240.167,311.295,240.167z M311.07,247.259c-8.728,0-13.395,8.093-13.395,18.052
		c0,9.822,4.942,17.625,13.395,17.625c8.531,0,13.329-7.874,13.329-17.98C324.399,255.858,319.892,247.259,311.07,247.259z
		 M130.679,322.168c0.343,0.215,0.571,0.588,0.571,1.026c0,0.667-0.534,1.194-1.199,1.194c-0.009,0-0.028,0-0.047,0l-42.249-0.064
		v29.174c0,0.667-0.534,1.194-1.199,1.194H79.14c-0.665,0-1.2-0.527-1.2-1.194v-29.184l-20.517-0.028v19.593
		c0,0.663-0.532,1.204-1.194,1.204h-7.67c-0.665,0-1.2-0.541-1.2-1.204v-19.611l-11.651-0.009c-0.487,0-0.919-0.304-1.104-0.747
		c-0.005-0.019-0.017-0.037-0.021-0.056l-18.598-0.023c-0.488,0-0.92-0.299-1.1-0.742c-0.187-0.453-0.086-0.962,0.257-1.298
		l22.93-22.934L21.6,298.441c-0.488,0-0.922-0.294-1.104-0.737c-0.187-0.448-0.087-0.962,0.256-1.303l19.558-19.56l-13.913-0.019
		c-0.483,0-0.917-0.289-1.099-0.732c-0.187-0.453-0.086-0.971,0.259-1.307l26.007-26.013c0.224-0.226,0.525-0.345,0.845-0.345
		c0,0,0,0,0.005,0c0.312,0,0.623,0.119,0.847,0.355l2.065,2.062l26.7-26.695c0.224-0.224,0.525-0.353,0.845-0.353
		c0.322,0,0.628,0.128,0.852,0.353l32.345,32.427c0.338,0.215,0.569,0.588,0.569,1.026c0,0.666-0.532,1.195-1.195,1.195
		c-0.012,0-0.03,0-0.049,0c0,0,0,0-0.005,0l-20.731-0.028l28.333,28.401c0.341,0.346,0.441,0.863,0.259,1.316
		c-0.187,0.438-0.625,0.737-1.104,0.737c0,0,0,0-0.004,0l-24.336-0.042L130.679,322.168z M52.641,324.282h-0.488v16.009h0.488
		V324.282z M67.932,289.144l-24.348-0.038c-0.483,0-0.913-0.289-1.099-0.736c-0.187-0.443-0.086-0.972,0.261-1.303l12.589-12.592
		l-0.35-0.354c-0.343-0.346-0.448-0.863-0.261-1.307c0.187-0.443,0.625-0.735,1.104-0.735c0,0,0,0,0.004,0h1.893l6.006-6.004
		l-7.346-7.365l-6.053-0.009c-0.483,0-0.915-0.292-1.099-0.735c-0.012-0.019-0.021-0.049-0.03-0.077l-14.15,14.16l13.912,0.009
		c0.483,0,0.917,0.303,1.099,0.747c0.187,0.448,0.086,0.962-0.259,1.307L30.25,293.667l16.473,0.019
		c0.487,0,0.924,0.304,1.104,0.747c0.187,0.447,0.086,0.961-0.257,1.292L24.64,318.649l13.75,0.033l20.864-20.871l-2.049-2.068
		c-0.34-0.34-0.446-0.858-0.259-1.302c0.187-0.443,0.621-0.737,1.104-0.737l5.295,0.01L67.932,289.144z M71.073,258.724
		l-7.906-0.009l3.953,3.967L71.073,258.724z M468.711,391.922c0.009-0.271,0.195-6.707-3.949-10.272l-0.14-0.089
		c-0.854-0.373-1.624-0.83-2.356-1.391l-0.131-0.074c-0.336-0.131-0.724-0.271-1.153-0.383l-0.321,1.036
		c0.061,0.027,5.6,2.212,6.977,11.243L468.711,391.922z M467.633,379.704l1.082-0.065c0.01-0.275,0.191-6.674-3.92-10.253
		l-0.145-0.094c-0.868-0.364-1.681-0.854-2.413-1.419l-0.14-0.079c-0.355-0.136-0.715-0.271-1.111-0.364l-0.322,1.041
		C460.711,368.494,466.256,370.682,467.633,379.704z M467.633,354.604l1.082-0.065c0.01-0.275,0.196-6.711-3.948-10.276l-0.14-0.094
		c-0.854-0.363-1.624-0.826-2.357-1.381l-0.131-0.089c-0.336-0.117-0.723-0.271-1.152-0.374l-0.322,1.041
		C460.711,343.389,466.256,345.574,467.633,354.604z M467.633,342.321l1.082-0.065c0.005-0.103,0.285-10.221-7.733-12.209
		l-0.321,1.036C460.711,331.11,466.256,333.294,467.633,342.321z M467.633,367.439l1.082-0.065
		c0.005-0.098,0.285-10.221-7.733-12.209l-0.321,1.036C460.711,356.219,466.256,358.413,467.633,367.439z M480.682,352.34
		c0.061-0.383,0.126-0.756,0.21-1.129l-1.036,1.498L480.682,352.34z M460.977,392.562l-0.321,1.026
		c0.061,0.028,5.601,2.212,6.978,11.238l0.551-0.037c-0.01-1.13,0.074-2.222,0.219-3.258
		C467.81,398.358,466.068,393.817,460.977,392.562z M480.359,354.753l-0.322-1.036c-8.018,1.983-7.733,12.102-7.729,12.209
		l1.078,0.065C474.759,356.965,480.304,354.772,480.359,354.753z M472.304,352.919l1.078,0.056
		c1.377-9.03,6.922-11.215,6.978-11.233l-0.322-1.036C472.02,342.684,472.3,352.812,472.304,352.919z M470.441,317.907
		c-6.402,5.228-1.819,14.249-1.773,14.347l1.004-0.401c-2.618-8.755,1.466-13.096,1.498-13.143L470.441,317.907z M480.033,327.88
		c-8.019,1.979-7.733,12.106-7.729,12.209l1.078,0.057c1.377-9.026,6.922-11.211,6.978-11.229L480.033,327.88z M471.254,378.911
		l1.083,0.056c0.761-4.993,2.805-7.892,4.48-9.488l0.452-0.942c0-0.383,0.01-0.766,0.023-1.139
		c-0.363,0.195-0.746,0.383-1.186,0.569C471.049,371.312,471.244,378.607,471.254,378.911z M471.828,387.321
		c-0.621,2.38-0.569,4.368-0.569,4.415h0.047C471.333,390.163,471.543,388.665,471.828,387.321z M469.522,398.633
		c0.014-0.653,0.028-1.316,0.047-1.988c-0.131,0.393-0.267,0.821-0.396,1.284C469.284,398.163,469.42,398.391,469.522,398.633z
		 M480.892,351.207l0.061-0.089c1.409-2.044,2.054-4.471,2.315-6.688l-0.547,1.129C482.525,345.975,481.512,348.182,480.892,351.207
		z M492.644,353.321l1.06,0.205c0.032-0.098,2.768-9.852-4.532-13.721l-0.556,0.919
		C488.657,340.762,493.512,344.192,492.644,353.321z M478.492,414.147c0.028-0.094,2.764-9.848-4.526-13.722l-0.565,0.925
		c0.052,0.037,4.896,3.505,4.033,12.592L478.492,414.147z M486.529,377.678l1.064,0.205c0.032-0.098,2.763-9.852-4.532-13.721
		l-0.56,0.924C482.549,365.124,487.388,368.596,486.529,377.678z M480.556,401.49l1.063,0.205c0.08-0.261,1.825-6.459-1.325-10.925
		l-0.116-0.122c-0.737-0.56-1.372-1.186-1.946-1.913l-0.112-0.099c-0.294-0.205-0.63-0.447-1.026-0.653l-0.561,0.92
		C476.574,388.935,481.414,392.408,480.556,401.49z M483.547,389.584l1.06,0.205c0.079-0.267,1.815-6.436-1.302-10.902l-0.122-0.112
		c-0.741-0.578-1.418-1.231-1.992-1.97l-0.112-0.107c-0.317-0.224-0.635-0.438-0.994-0.635l-0.56,0.93
		C479.566,377.03,484.406,380.441,483.547,389.584z M489.651,365.236l1.064,0.196c0.074-0.262,1.82-6.459-1.33-10.931l-0.107-0.107
		c-0.742-0.569-1.377-1.194-1.951-1.923l-0.107-0.098c-0.312-0.225-0.648-0.453-1.031-0.658l-0.556,0.934
		C485.671,352.672,490.515,356.149,489.651,365.236z M491.43,377.352l1.031,0.326c3.528-8.419,9.441-9.194,9.498-9.203l-0.061-1.078
		C493.642,367.374,491.448,377.258,491.43,377.352z M496.471,379.839c-0.565,0.187-1.153,0.312-1.849,0.429
		c-5.717,2.008-7.3,9.129-7.364,9.428l1.031,0.327c3.528-8.42,9.441-9.194,9.497-9.204l-0.061-1.087
		C497.319,379.732,496.941,379.779,496.471,379.839z M494.594,364.732l1.031,0.322c3.529-8.429,9.442-9.194,9.498-9.204
		l-0.056-1.078C496.807,354.749,494.617,364.629,494.594,364.732z M480.966,414.763l1.036,0.317
		c3.528-8.424,9.441-9.199,9.498-9.208l-0.061-1.083C483.179,404.776,480.989,414.665,480.966,414.763z M497.717,352.29l1.035,0.326
		c3.529-8.419,9.442-9.193,9.498-9.203l-0.061-1.088C499.924,342.302,497.735,352.196,497.717,352.29z M501.828,331.278
		l-0.514-0.951c-7.477,3.509-5.236,13.385-5.213,13.479l1.078-0.15C496.76,334.536,501.776,331.306,501.828,331.278z
		 M484.135,402.138l1.031,0.322c3.529-8.429,9.446-9.194,9.503-9.203l-0.061-1.083C486.348,392.151,484.158,402.031,484.135,402.138
		z M493.703,310.631c0.032-0.099,2.768-9.857-4.532-13.722l-0.556,0.915c0.047,0.037,4.896,3.463,4.032,12.601L493.703,310.631z
		 M488.079,329.738c-0.178-2.818-1.2-6.09-4.467-8.12C485.974,323.606,487.248,326.508,488.079,329.738z M487.206,309.464
		c-0.308-0.215-0.644-0.438-1.026-0.645l-0.556,0.925c0.047,0.037,4.887,3.495,4.027,12.592l1.064,0.205
		c0.074-0.262,1.82-6.459-1.33-10.931l-0.107-0.121c-0.742-0.556-1.377-1.181-1.951-1.909L487.206,309.464z M495.882,327.036
		c1.605-1.06,3.342-1.862,5.167-2.469c-2.735,0.225-4.756,1.559-6.207,3.201C495.178,327.507,495.527,327.269,495.882,327.036z
		 M505.067,311.873c-8.261-0.019-10.45,9.866-10.469,9.96l1.031,0.326c3.528-8.419,9.441-9.194,9.498-9.203L505.067,311.873z
		 M512.964,297.246c-0.015,0.317-0.374,7.216-4.359,11.948c0.215-0.028,0.435-0.057,0.645-0.065l0.62-0.07l-0.027,0.626
		c-0.015,0.326-0.383,7.416-4.522,12.144c0.261-0.038,0.513-0.057,0.761-0.084l0.62-0.065l-0.027,0.625
		c0,0.065-0.019,0.411-0.08,0.938c-0.373,0.069-0.746,0.121-1.12,0.196c0.023-0.206,0.047-0.393,0.07-0.547
		c-0.537,0.065-1.092,0.145-1.671,0.252l-1.895,0.327l1.446-1.274c4.112-3.612,5.078-9.922,5.279-11.929
		c-0.458,0.061-0.943,0.121-1.48,0.215l-1.782,0.294l1.325-1.223c3.911-3.646,4.854-9.754,5.06-11.724
		c-3.062,0.354-5.718,1.105-7.906,2.249l-1.937,1.008l1.246-1.801c3.645-5.246,1.441-12.723,0.686-14.855
		c-4.816,2.996-7.724,6.529-8.662,10.515c-1.008,4.284,0.611,7.854,1.195,8.942c0.046-0.019,0.098-0.028,0.145-0.047
		c0.07-0.28,0.131-0.56,0.205-0.84l1.05,0.252c-0.009,0.047-0.023,0.103-0.032,0.149c0.289-0.121,0.578-0.233,0.854-0.373
		l2.008-0.943l-1.345,1.765c-2.571,3.379-2.637,7.159-2.576,8.382c0.771,0.112,1.526,0.168,2.259,0.177l1.75,0.02l-1.456,0.971
		c-5.675,3.826-5.769,9.68-5.675,11.266c0.85,0.117,1.676,0.188,2.487,0.173l1.886-0.019l-1.582,1.022
		c-1.918,1.223-3.216,2.692-4.103,4.167c-1.261,1.298-2.371,2.764-3.29,4.332c-0.07-0.393-0.126-0.784-0.196-1.177
		c0.322-2.193,0.154-4.924-1.4-7.85l-0.826-1.55l1.555,0.812c0.653,0.345,1.344,0.644,2.091,0.914
		c0.774-1.307,3.258-6.216,0.686-11.863l-0.62-1.363l1.349,0.649c0.555,0.271,1.064,0.485,1.572,0.672
		c0.64-1.073,2.437-4.564,1.639-8.886c-0.742-4.023-3.486-7.696-8.135-10.931c-0.705,1.736-2.6,7.075-1.307,11.938l0.396,1.498
		l-1.251-0.924c-0.266-0.196-0.541-0.401-0.826-0.598c-0.751,1.844-2.813,7.691-1.068,12.741l0.593,1.718l-1.442-1.111
		c-0.43-0.331-0.826-0.625-1.214-0.896c-0.145,0.364-0.345,0.896-0.56,1.55c-0.336-0.112-0.69-0.205-1.055-0.294
		c0.438-1.344,0.845-2.212,0.896-2.311l0.267-0.56l0.522,0.341c0.178,0.121,0.364,0.247,0.537,0.373
		c-1.288-6.058,1.661-12.321,1.792-12.61l0.275-0.56l0.514,0.345c0.098,0.065,0.182,0.117,0.279,0.187
		c-0.924-5.834,1.802-11.625,1.919-11.882l0.275-0.561l0.513,0.346c3.192,2.128,5.582,4.466,7.146,6.963
		c-0.173-1.409-0.149-3.024,0.257-4.77c1.045-4.425,4.312-8.308,9.722-11.537l0.541-0.321l0.243,0.573
		c0.149,0.374,3.486,8.494,0.317,14.977c2.128-0.863,4.597-1.433,7.359-1.698l0.621-0.065L512.964,297.246z M491.117,326.144
		c-0.112,0.187-0.191,0.304-0.22,0.327l-0.233,0.322l-0.378-0.126c-0.434-0.149-0.854-0.309-1.265-0.481
		c0.621,1.541,0.9,3.024,0.971,4.396C490.37,329.103,490.748,327.61,491.117,326.144z M493.025,325.682l-0.4-0.069l-0.052-0.401
		c0-0.01-0.014-0.127-0.028-0.341c-0.363,1.475-0.742,2.978-1.134,4.531c0.742-1.223,1.741-2.445,3.104-3.523
		C494.024,325.827,493.535,325.762,493.025,325.682z M494.048,314.323c-0.084,0.126-0.145,0.215-0.158,0.242l-0.233,0.327
		l-0.378-0.131c-0.294-0.098-0.574-0.205-0.868-0.317c0.447,1.283,0.648,2.492,0.709,3.646
		C493.437,316.81,493.74,315.559,494.048,314.323z M496.027,305.147c0.037,0.271,0.041,0.509,0.061,0.771
		c0.069-0.28,0.135-0.565,0.2-0.85L496.027,305.147z M495.658,312.284c-0.341,1.414-0.714,2.931-1.12,4.564
		c0.709-1.186,1.666-2.357,2.94-3.426c-0.435-0.047-0.878-0.099-1.335-0.188l-0.396-0.064l-0.052-0.393
		C495.695,312.741,495.672,312.563,495.658,312.284z M498.748,309.73c3.528-8.433,9.441-9.198,9.497-9.208l-0.061-1.082
		c-8.266-0.028-10.454,9.856-10.473,9.959L498.748,309.73z M501.31,287.44c-7.477,3.496-5.236,13.376-5.213,13.475l1.078-0.145
		c-0.415-9.12,4.602-12.35,4.653-12.382L501.31,287.44z M533.205,387.321c0,0-1.162,0.774-3.221,2.128
		c-1.026,0.663-2.268,1.475-3.696,2.408c-1.428,0.924-2.959,2.109-4.681,3.295c-1.713,1.214-3.58,2.506-5.451,4.023
		c-0.947,0.732-1.918,1.493-2.912,2.268c-0.495,0.393-1.009,0.784-1.513,1.177c-0.499,0.4-0.994,0.821-1.498,1.241
		c-1.003,0.845-2.025,1.698-3.062,2.558c-1.05,0.863-2.086,1.736-3.095,2.684c-2.025,1.857-4.153,3.668-6.123,5.656
		c-1.013,0.961-2.021,1.932-3.024,2.894c-1.008,0.957-1.95,1.979-2.916,2.954c-1.946,1.941-3.771,3.939-5.535,5.881
		c-1.778,1.932-3.402,3.873-4.999,5.666c-0.317,0.383-0.625,0.756-0.938,1.129c-0.592,0.915-1.152,1.802-1.67,2.675
		c-1.102,1.792-2.096,3.435-2.95,4.904c-0.872,1.479-1.572,2.782-2.165,3.846c-1.172,2.156-1.788,3.421-1.788,3.421
		s0.532-1.297,1.601-3.5c0.547-1.097,1.195-2.445,2.003-3.957c0.401-0.757,0.83-1.55,1.278-2.399
		c0.299-0.519,0.603-1.055,0.915-1.605c-0.191,0.252-0.392,0.499-0.574,0.737c-1.302,1.643-2.482,3.164-3.505,4.527
		c-0.868,1.134-1.605,2.16-2.24,3.052c0.145,1.321,0.201,2.072,0.201,2.072s-0.094-0.695-0.299-1.937
		c-0.094,0.126-0.188,0.262-0.275,0.378c-0.028,0.042-0.052,0.079-0.08,0.112c0.593,2.352,0.85,3.715,0.85,3.715
		s-0.326-1.293-1.003-3.5c-1.261,1.792-1.938,2.855-1.938,2.855s0.64-1.152,1.872-3.094c-0.057-0.168-0.117-0.364-0.178-0.561
		c-0.518,1.009-0.788,1.568-0.788,1.568s0.252-0.616,0.751-1.699c-0.056-0.163-0.107-0.331-0.158-0.499
		c-0.486,1.073-0.938,1.988-1.354,2.702c0.042,0.49,0.064,0.747,0.064,0.747s-0.037-0.243-0.103-0.682
		c-0.578,0.971-1.092,1.577-1.525,1.765l-0.43-0.999c0.457-0.196,1.022-1.008,1.698-2.343c-0.084-0.457-0.163-0.962-0.271-1.54
		c-0.229-1.204-0.485-2.67-0.849-4.331c-0.038-0.187-0.084-0.383-0.117-0.556c-0.312,1.036-0.658,1.731-1.031,2.025l-0.658-0.872
		c0.443-0.332,0.85-1.494,1.214-3.318c-0.206-0.915-0.43-1.872-0.663-2.871c-0.22-0.989-0.48-2.016-0.752-3.062
		c-0.177-0.457-0.354-0.905-0.531-1.362c-0.947-2.213-1.886-4.564-2.964-6.954c-1.069-2.39-2.165-4.872-3.411-7.327
		c-0.612-1.232-1.19-2.488-1.84-3.72c-0.653-1.232-1.302-2.469-1.965-3.696c-1.246-2.497-2.692-4.887-4.036-7.3
		c-0.663-1.204-1.372-2.366-2.096-3.505c-0.71-1.147-1.419-2.282-2.105-3.388c-0.345-0.561-0.695-1.111-1.026-1.652
		c-0.364-0.532-0.719-1.069-1.078-1.587c-0.695-1.06-1.382-2.077-2.049-3.076c-1.298-2.025-2.665-3.846-3.916-5.525
		c-1.26-1.68-2.333-3.276-3.402-4.611c-1.068-1.32-1.992-2.487-2.763-3.453c-1.512-1.923-2.385-3.024-2.385-3.024
		s0.924,1.055,2.548,2.889c0.808,0.925,1.788,2.049,2.913,3.333c1.124,1.283,2.277,2.837,3.579,4.489
		c1.293,1.661,2.707,3.454,4.07,5.441c0.699,0.98,1.414,1.998,2.146,3.034c0.364,0.514,0.732,1.045,1.102,1.568
		c0.345,0.551,0.695,1.097,1.05,1.651c0.7,1.12,1.419,2.255,2.147,3.397c0.728,1.14,1.455,2.297,2.128,3.51
		c1.367,2.399,2.856,4.789,4.121,7.3c0.648,1.241,1.297,2.482,1.941,3.729c0.644,1.237,1.213,2.511,1.82,3.753
		c1.218,2.487,2.301,4.975,3.355,7.393c0.237,0.532,0.467,1.068,0.686,1.596c-0.345-1.194-0.695-2.427-1.092-3.658
		c-0.774-2.512-1.577-5.097-2.521-7.683c-0.462-1.293-0.887-2.613-1.386-3.906c-0.504-1.298-1.013-2.604-1.513-3.901
		c-0.947-2.633-2.104-5.181-3.154-7.72c-0.509-1.278-1.088-2.516-1.666-3.729c-0.569-1.224-1.135-2.441-1.689-3.627
		c-0.28-0.588-0.556-1.171-0.826-1.759c-0.304-0.57-0.588-1.139-0.883-1.699c-0.569-1.12-1.124-2.222-1.675-3.29
		c-1.055-2.156-2.189-4.126-3.234-5.946c-1.06-1.811-1.937-3.528-2.843-4.975c-0.9-1.452-1.689-2.707-2.328-3.753
		c-1.288-2.096-2.025-3.29-2.025-3.29s0.798,1.148,2.202,3.174c0.69,1.008,1.526,2.244,2.492,3.654
		c0.966,1.409,1.928,3.08,3.024,4.877c1.102,1.797,2.292,3.743,3.402,5.881c0.579,1.063,1.167,2.142,1.773,3.267
		c0.304,0.56,0.603,1.12,0.91,1.694c0.28,0.583,0.564,1.162,0.845,1.76c0.569,1.194,1.148,2.398,1.731,3.626
		c0.598,1.213,1.181,2.455,1.708,3.729c1.078,2.549,2.264,5.097,3.234,7.738c0.495,1.316,0.994,2.623,1.489,3.93
		c0.49,1.316,0.91,2.642,1.362,3.948c0.915,2.604,1.704,5.218,2.46,7.738c0.793,2.506,1.367,4.994,1.992,7.313
		c0.233,1.05,0.481,2.049,0.705,3.028c0.462,1.279,0.91,2.507,1.33,3.701c0.187-1.4,0.364-2.986,0.527-4.77
		c-0.383-1.493-0.798-3.043-1.204-4.658c-0.756-2.538-1.47-5.25-2.343-7.999c-0.43-1.382-0.873-2.791-1.312-4.214
		c-0.443-1.419-0.971-2.829-1.466-4.266c-0.321-0.925-0.644-1.849-0.971-2.772c-0.462-0.439-0.896-0.901-1.288-1.419
		c-2.184-2.903-2.837-6.516-2.939-9.446c-0.495-1.176-0.999-2.343-1.484-3.51c-0.569-1.409-1.195-2.781-1.839-4.126
		c-0.64-1.344-1.26-2.679-1.871-3.985c-0.304-0.653-0.616-1.302-0.91-1.941c-0.327-0.635-0.654-1.261-0.971-1.886
		c-0.631-1.232-1.256-2.445-1.858-3.631c-0.615-1.167-1.157-2.343-1.787-3.426c-0.621-1.087-1.218-2.128-1.792-3.136
		c-1.162-1.998-2.143-3.888-3.137-5.479c-0.998-1.596-1.871-2.996-2.58-4.131c-1.424-2.305-2.245-3.626-2.245-3.626
		s0.882,1.274,2.417,3.501c0.761,1.119,1.689,2.482,2.744,4.041c1.069,1.559,2.119,3.407,3.333,5.396
		c0.597,0.989,1.223,2.025,1.866,3.099c0.658,1.064,1.237,2.23,1.881,3.389c0.635,1.176,1.288,2.38,1.951,3.603
		c0.326,0.616,0.667,1.241,1.004,1.867c0.303,0.648,0.615,1.297,0.928,1.95c0.631,1.308,1.27,2.642,1.909,3.986
		c0.653,1.344,1.293,2.716,1.881,4.125c0.196,0.467,0.396,0.92,0.598,1.392c0.103-1.56,0.304-2.623,0.326-2.744l0.126-0.607
		l0.589,0.206c0.205,0.074,0.41,0.148,0.615,0.232c-2.726-5.562-1.391-12.357-1.33-12.661l0.126-0.606l0.589,0.205
		c0.098,0.037,0.205,0.074,0.303,0.107c-2.306-5.433-1.078-11.705-1.021-11.985l0.126-0.616l0.588,0.205
		c0.098,0.038,0.2,0.075,0.299,0.107c-2.297-5.432-1.069-11.682-1.013-11.976l0.126-0.616l0.588,0.215
		c0.205,0.08,0.41,0.149,0.616,0.225c-2.726-5.55-1.392-12.35-1.33-12.652l0.126-0.616l0.588,0.215
		c0.098,0.037,0.205,0.074,0.303,0.106c-2.305-5.432-1.078-11.7-1.021-11.994l0.126-0.606l0.588,0.205
		c3.612,1.293,6.487,2.969,8.625,5.022c-0.514-1.33-0.896-2.898-0.915-4.682c-0.065-4.555,2.161-9.119,6.627-13.572l0.443-0.443
		l0.374,0.505c0.242,0.317,5.451,7.383,3.953,14.449c1.862-1.363,4.106-2.521,6.72-3.449l0.589-0.215l0.126,0.616
		c0.061,0.308,1.391,7.085-1.321,12.643c0.206-0.079,0.406-0.148,0.606-0.224l0.589-0.205l0.126,0.616
		c0.009,0.037,0.042,0.195,0.079,0.447c-0.467,1.783-0.858,3.977-0.831,6.311l-0.111,0.252c0.308-2.684,0.064-5.082-0.099-6.17
		c-0.434,0.168-0.887,0.354-1.386,0.569l-1.657,0.724l0.985-1.518c2.916-4.484,2.338-10.646,2.058-12.601
		c-2.88,1.092-5.273,2.474-7.122,4.093l-1.638,1.456l0.774-2.044c2.259-5.983-1.698-12.694-2.949-14.589
		c-3.935,4.079-5.899,8.214-5.853,12.302c0.056,4.396,2.497,7.473,3.337,8.401c0.042-0.028,0.084-0.057,0.126-0.089
		c-0.005-0.289-0.01-0.579-0.01-0.859l1.088-0.019c0,0.047,0.005,0.099,0.005,0.149c0.252-0.187,0.499-0.363,0.732-0.56l1.718-1.4
		l-0.883,2.035c-1.671,3.901-0.807,7.589-0.457,8.755c0.774-0.074,1.521-0.205,2.231-0.383l1.698-0.41l-1.167,1.307
		c-4.578,5.082-3.243,10.79-2.768,12.307c0.845-0.084,1.652-0.232,2.465-0.438l1.82-0.476l-1.293,1.372
		c-4.85,5.144-3.473,11.015-2.992,12.555c0.369-0.038,0.752-0.089,1.172-0.159l1.521-0.262l-1.022,1.153
		c-1.297,1.451-2.193,3.066-2.721,4.812c-0.019,2.357-0.037,4.746-0.07,7.169c0.028,0.093,0.057,0.196,0.079,0.271
		c0.775-0.074,1.521-0.205,2.231-0.373l0.603-0.149l-0.215,0.462c-0.089,0.178-0.351,0.742-0.668,1.587
		c-1.003,1.362-1.722,2.837-2.114,4.424c-0.032,1.933-0.065,3.855-0.103,5.778c0.01,0.037,0.014,0.074,0.028,0.107l-0.267,0.532
		c-0.051,0.111-0.467,1.008-0.929,2.38c0.005-0.196,0.01-0.393,0.015-0.588l-0.29-0.028c-0.452-0.028-0.896-0.084-1.334-0.149
		c0.476,0.658,0.868,1.345,1.213,2.049c-0.149,0.519-0.299,1.092-0.425,1.694c-0.555-1.521-1.409-2.922-2.558-4.2l-1.176-1.298
		l1.703,0.411c0.71,0.168,1.471,0.303,2.245,0.383c0.145-0.495,0.388-1.429,0.49-2.623h0.21c0.019-0.831,0.032-1.671,0.047-2.506
		h-0.271c-0.248-2.408-1.153-4.626-2.693-6.553l-0.934-1.167l1.471,0.299c0.602,0.121,1.143,0.205,1.689,0.275
		c0.163-0.532,0.429-1.587,0.509-2.931l0.382-0.01c0.005-0.803,0.02-1.597,0.023-2.399l-0.471,0.019
		c-0.271-2.333-1.167-4.471-2.656-6.347l-0.929-1.167l1.461,0.304c0.584,0.116,1.144,0.205,1.685,0.261
		c0.477-1.517,1.812-7.233-2.776-12.32l-1.177-1.303l1.704,0.42c0.709,0.168,1.466,0.299,2.245,0.374
		c0.438-1.461,1.652-6.828-2.222-11.677l-0.934-1.167l1.47,0.303c0.603,0.117,1.144,0.206,1.689,0.271
		c0.364-1.203,1.251-5.03-0.578-9.025c-1.694-3.715-5.241-6.608-10.543-8.62c-0.266,1.862-0.798,7.505,1.629,11.892l0.756,1.354
		l-1.438-0.588c-0.308-0.131-0.625-0.252-0.947-0.383c-0.285,1.97-0.854,8.139,2.067,12.619l0.989,1.521l-1.661-0.728
		c-0.499-0.215-0.957-0.401-1.396-0.564c-0.266,1.857-0.798,7.481,1.619,11.868l0.747,1.362l-1.429-0.597
		c-0.303-0.131-0.615-0.252-0.938-0.374c-0.266,1.872-0.798,7.495,1.629,11.892l0.756,1.363l-1.438-0.598
		c-0.308-0.131-0.625-0.257-0.947-0.373c-0.285,1.96-0.854,8.13,2.067,12.61l0.989,1.521l-1.661-0.729
		c-0.499-0.214-0.957-0.401-1.396-0.569c-0.121,0.845-0.299,2.45-0.225,4.35c0.668,1.55,1.316,3.1,1.896,4.687
		c0.551,1.456,1.097,2.897,1.647,4.335c0.154,0.416,0.294,0.826,0.434,1.228c1.736,1.597,4.032,2.595,6.847,2.969
		c0.065,0.368,0.145,0.742,0.238,1.106c-2.507-0.271-4.658-1.009-6.427-2.176c0.136,0.411,0.275,0.822,0.416,1.232
		c0.484,1.451,1.003,2.87,1.433,4.294c0.438,1.428,0.872,2.847,1.292,4.229c0.873,2.772,1.503,5.517,2.203,8.083
		c0.205,0.91,0.42,1.811,0.63,2.688c0.378-4.681,0.691-10.407,0.934-16.802c0.075,0.205,0.131,0.411,0.22,0.616
		c0.224,0.541,0.494,1.046,0.784,1.54c-0.304,6.87-0.691,13.03-1.195,17.885c0.099,0.467,0.201,0.919,0.29,1.391
		c0.229,1.125,0.447,2.222,0.667,3.267c0.173,1.036,0.346,2.025,0.509,2.95c0.158,0.928,0.303,1.801,0.415,2.613
		c1.998-5.302,4.467-13.124,7.136-22.355c-4.083-1.4-6.874-3.79-8.279-7.104c-0.215-0.504-0.368-1.026-0.513-1.549
		c-0.015,0.252-0.019,0.504-0.028,0.746c-0.191-0.514-0.346-1.026-0.48-1.549c0.107,0.009,0.215,0.027,0.317,0.037
		c-0.08-0.364-0.136-0.724-0.187-1.097c-0.122-0.019-0.248-0.038-0.369-0.047c-0.168-0.971-0.247-1.941-0.257-2.894l0.495-0.028
		c0.009-0.103,0.019-0.215,0.027-0.326c-0.009-0.509-0.061-1.587-0.303-2.898c0.098-0.668,0.21-1.307,0.345-1.904
		c0.178,0.49,0.313,0.989,0.435,1.503c0.494-2.282,1.213-4.005,1.488-4.635c0.005-0.215,0.01-0.438,0.02-0.653
		c0.103-0.009,0.205-0.028,0.308-0.037l0.065-0.131l0.149,0.103c0.266-0.027,0.532-0.061,0.788-0.098
		c-0.933-5.824,1.778-11.621,1.914-11.887l0.266-0.57l0.523,0.341c0.088,0.07,0.182,0.122,0.275,0.187
		c-0.925-5.824,1.796-11.621,1.922-11.877l0.271-0.561l0.522,0.346c0.084,0.065,0.177,0.116,0.261,0.178
		c-0.909-5.83,1.807-11.599,1.933-11.854l0.267-0.569l0.522,0.345c0.173,0.117,0.359,0.252,0.536,0.374
		c-1.288-6.062,1.662-12.321,1.793-12.606l0.275-0.556l0.513,0.341c0.099,0.062,0.183,0.122,0.28,0.178
		c-0.924-5.824,1.802-11.611,1.918-11.868l0.275-0.569l0.514,0.345c3.192,2.124,5.582,4.462,7.145,6.964
		c-0.172-1.414-0.153-3.029,0.253-4.761c1.05-4.438,4.316-8.316,9.726-11.546l0.542-0.327l0.242,0.579
		c0.149,0.373,3.486,8.494,0.317,14.981c2.124-0.868,4.598-1.438,7.36-1.704l0.62-0.061l-0.027,0.626
		c-0.015,0.316-0.374,7.22-4.359,11.947c0.215-0.037,0.434-0.057,0.645-0.074l0.62-0.066l-0.028,0.626
		c-0.014,0.322-0.382,7.421-4.521,12.153c0.261-0.037,0.513-0.065,0.76-0.099l0.621-0.056l-0.027,0.625
		c-0.015,0.309-0.355,6.982-4.159,11.715l0.015-0.01l-0.028,0.635c-0.01,0.309-0.373,7.216-4.359,11.948
		c0.22-0.038,0.435-0.057,0.653-0.075l0.621-0.069l-0.028,0.63c-0.019,0.322-0.383,7.42-4.522,12.144
		c0.257-0.032,0.504-0.061,0.761-0.089l0.621-0.056l-0.028,0.625c-0.004,0.131-0.074,1.307-0.387,2.959
		c0.177-0.224,0.345-0.438,0.522-0.653c1.928-2.432,4.061-4.686,6.067-6.981c0.998-1.158,2.034-2.255,3.08-3.323
		c1.036-1.078,2.067-2.138,3.075-3.192c0.495-0.522,0.999-1.036,1.494-1.55c0.518-0.494,1.031-0.979,1.54-1.465
		c1.018-0.952,2.016-1.896,2.982-2.801c0.979-0.9,1.89-1.824,2.847-2.637c0.952-0.812,1.876-1.605,2.749-2.356
		c1.773-1.499,3.355-2.922,4.858-4.075c1.498-1.147,2.8-2.146,3.883-2.968c2.156-1.634,3.389-2.567,3.389-2.567
		s-1.186,0.99-3.258,2.735c-1.05,0.868-2.306,1.913-3.753,3.108c-1.451,1.213-2.973,2.688-4.709,4.219
		c-0.858,0.775-1.755,1.587-2.684,2.418c-0.934,0.83-1.824,1.773-2.771,2.697c-0.943,0.92-1.914,1.886-2.903,2.865
		c-0.495,0.485-1.004,0.971-1.503,1.476c-0.494,0.513-0.984,1.026-1.484,1.559c-0.994,1.045-2.007,2.118-3.028,3.192
		c-1.032,1.078-2.059,2.175-3.043,3.342c-1.979,2.291-4.079,4.555-5.979,6.991c-0.658,0.784-1.298,1.567-1.951,2.361
		c-0.798,2.702-2.254,5.871-4.882,8.111c-0.803,0.682-1.68,1.223-2.613,1.652c-0.541,0.746-1.078,1.493-1.605,2.23
		c-1.689,2.343-3.225,4.686-4.737,6.865c-1.424,2.24-2.833,4.317-4.014,6.306c-2.768,4.466-4.83,8.186-6.104,10.575
		c0.047,0.317,0.079,0.63,0.107,0.905c0.564-0.868,1.209-1.848,1.955-2.922c0.49-0.695,1.009-1.455,1.555-2.24
		c0.569-0.765,1.166-1.586,1.801-2.427c1.051-1.456,2.269-2.968,3.52-4.555c0.527-0.858,1.073-1.745,1.619-2.651
		c1.326-2.016,2.656-4.2,4.196-6.338c1.507-2.146,3.075-4.377,4.765-6.562c0.845-1.097,1.657-2.23,2.529-3.323
		c0.887-1.082,1.765-2.175,2.651-3.267c1.75-2.193,3.687-4.242,5.503-6.319c0.9-1.055,1.843-2.044,2.795-3.015
		c0.938-0.971,1.871-1.941,2.777-2.894c0.457-0.477,0.91-0.938,1.362-1.41c0.467-0.438,0.934-0.877,1.391-1.311
		c0.929-0.873,1.83-1.718,2.712-2.539c1.727-1.681,3.473-3.155,5.078-4.518c1.605-1.363,3.043-2.651,4.405-3.683
		c1.358-1.036,2.548-1.933,3.519-2.684c1.961-1.475,3.081-2.319,3.081-2.319s-1.073,0.9-2.94,2.487
		c-0.943,0.774-2.091,1.736-3.402,2.828c-1.307,1.097-2.684,2.441-4.256,3.832c-1.564,1.399-3.263,2.907-4.943,4.63
		c-0.854,0.849-1.727,1.713-2.627,2.604c-0.448,0.439-0.901,0.887-1.363,1.335c-0.443,0.477-0.891,0.938-1.334,1.419
		c-0.901,0.952-1.82,1.918-2.745,2.898c-0.933,0.971-1.871,1.97-2.753,3.015c-1.793,2.096-3.692,4.145-5.419,6.338
		c-0.896,1.088-1.778,2.156-2.669,3.229c-0.883,1.078-1.694,2.208-2.544,3.291c-1.704,2.156-3.286,4.358-4.808,6.496
		c-0.76,1.045-1.488,2.096-2.193,3.132c0.378-0.438,0.761-0.878,1.158-1.303c1.754-1.96,3.57-3.985,5.507-5.964
		c0.966-0.989,1.904-2.017,2.902-2.996c1.004-0.971,2.017-1.951,3.024-2.932c1.993-1.979,4.149-3.78,6.203-5.638
		c1.021-0.934,2.076-1.811,3.127-2.665c1.055-0.858,2.091-1.703,3.104-2.534c0.509-0.42,1.013-0.835,1.512-1.246
		c0.514-0.378,1.031-0.761,1.535-1.144c1.027-0.756,2.017-1.488,2.992-2.202c1.918-1.471,3.827-2.717,5.572-3.893
		c1.76-1.157,3.337-2.269,4.816-3.137c1.471-0.868,2.749-1.624,3.809-2.249C531.991,388.03,533.205,387.321,533.205,387.321z
		 M469.808,383.512l-0.104,0.275l-0.401-0.033c-0.303-0.027-0.602-0.064-0.914-0.098c0.583,0.896,1.026,1.839,1.381,2.819
		C469.779,385.482,469.793,384.501,469.808,383.512z M471.314,370.076l-0.145-0.373c-0.005-0.01-0.061-0.159-0.14-0.411
		c-0.005,0.774-0.005,1.545-0.015,2.329c0.304-0.546,0.631-1.093,1.013-1.615c-0.103,0.019-0.21,0.028-0.308,0.028L471.314,370.076z
		 M471.314,357.049l-0.145-0.373c-0.005-0.009-0.051-0.116-0.112-0.322c0.005,1.508,0.005,3.071,0,4.668
		c0.421-1.363,1.097-2.791,2.151-4.173c-0.489,0.079-0.984,0.14-1.493,0.178L471.314,357.049z M471.012,343.399
		c0.004,1.438,0.014,3.005,0.023,4.681c0.4-1.312,1.035-2.688,2.016-4.032c-0.438,0.065-0.882,0.112-1.33,0.149l-0.401,0.037
		l-0.145-0.383C471.156,343.824,471.091,343.655,471.012,343.399z M470.89,384.669c0.317-0.616,0.687-1.223,1.111-1.802
		c-0.364,0.057-0.724,0.094-1.093,0.122C470.904,383.549,470.895,384.11,470.89,384.669z M469.934,370.883
		c-0.052,0.145-0.089,0.252-0.089,0.261l-0.145,0.374l-0.401-0.037c-0.304-0.02-0.598-0.062-0.906-0.099
		c0.626,0.962,1.121,1.97,1.48,3.034c0.009-0.038,0.032-0.075,0.041-0.107C469.919,373.17,469.929,372.036,469.934,370.883z
		 M469.979,357.941c-0.069,0.206-0.121,0.332-0.135,0.364l-0.141,0.378l-0.401-0.037c-0.457-0.037-0.905-0.084-1.344-0.145
		c0.98,1.33,1.615,2.702,2.017,4.022C469.976,360.979,469.979,359.458,469.979,357.941z M469.942,345.75
		c-0.047,0.145-0.089,0.252-0.103,0.28l-0.14,0.373l-0.401-0.037c-0.304-0.019-0.607-0.061-0.915-0.098
		c0.742,1.129,1.232,2.259,1.577,3.351C469.961,348.323,469.952,347.025,469.942,345.75z M469.63,336.375
		c0.103,0.247,0.163,0.49,0.247,0.737c-0.004-0.299-0.004-0.588-0.009-0.877L469.63,336.375z M467.306,435.438
		c-0.042-0.103-0.075-0.205-0.107-0.308c0.028,0.149,0.056,0.303,0.084,0.443C467.287,435.522,467.292,435.485,467.306,435.438z
		 M492.984,410.768c-0.519,0.682-1.032,1.354-1.55,2.025c-0.672,0.892-1.345,1.745-2.002,2.623c0.069-0.057,0.145-0.098,0.219-0.164
		C491.127,414.006,492.19,412.411,492.984,410.768z M496.438,346.792c0.047-0.019,0.098-0.037,0.145-0.051
		c0.07-0.28,0.131-0.565,0.205-0.85l1.051,0.252c-0.01,0.051-0.023,0.103-0.033,0.149c0.29-0.117,0.579-0.233,0.854-0.364
		l2.007-0.947l-1.344,1.764c-2.572,3.375-2.638,7.169-2.576,8.383c0.77,0.107,1.525,0.172,2.258,0.187l1.746,0.009l-1.451,0.98
		c-5.676,3.817-5.769,9.665-5.676,11.262c0.85,0.121,1.676,0.177,2.488,0.168l1.885-0.01l-1.582,1.009
		c-5.89,3.78-6.034,9.847-5.955,11.448c0.406,0.069,0.793,0.103,1.176,0.131l1.536,0.121l-1.279,0.868
		c-1.605,1.097-2.875,2.445-3.804,4.004c-0.593,2.292-1.199,4.602-1.815,6.936c0.005,0.098,0.005,0.205,0.01,0.28
		c0.77,0.121,1.517,0.177,2.254,0.187l1.75,0.009l-1.451,0.98c-1.802,1.213-3.197,2.744-4.158,4.555
		c-0.5,1.862-1.004,3.725-1.508,5.582c-0.023,0.472-0.019,0.863-0.009,1.13c0.849,0.116,1.675,0.177,2.492,0.168l1.876-0.01
		l-1.578,1.008c-2.496,1.605-4.247,3.771-5.198,6.46h-0.015c-0.229,0.812-0.457,1.614-0.686,2.417l0.089,0.019
		c-0.173,1.139-0.169,2.068-0.146,2.558c2.782,0.42,5.19,0.122,7.248-0.821c0.229-0.312,0.453-0.635,0.682-0.961
		c0.858-1.223,1.802-2.408,2.712-3.631c0.924-1.205,1.824-2.455,2.795-3.659c0.262-0.317,0.523-0.649,0.789-0.971
		c0.537-1.872,0.77-3.501,0.863-4.35c-0.532,0.056-1.083,0.14-1.671,0.242l-1.899,0.336l1.447-1.283
		c4.111-3.612,5.082-9.908,5.287-11.925c-0.509,0.065-1.003,0.136-1.488,0.215l-1.77,0.289l1.312-1.223
		c3.915-3.631,4.857-9.735,5.068-11.705l-1.694,0.196l1.105-1.106c3.669-3.663,4.56-9.511,4.761-11.438
		c-0.537,0.056-1.092,0.14-1.671,0.243l-1.895,0.336l1.446-1.279c4.112-3.617,5.078-9.913,5.279-11.929
		c-0.458,0.056-0.943,0.126-1.48,0.215l-1.782,0.298l1.325-1.231c3.911-3.631,4.854-9.755,5.06-11.724
		c-3.062,0.363-5.718,1.11-7.906,2.254l-1.937,1.018l1.246-1.802c3.645-5.26,1.441-12.723,0.686-14.869
		c-4.816,3.006-7.724,6.543-8.662,10.529C494.234,342.133,495.854,345.69,496.438,346.792z M480.771,408.397
		c0.229-0.821,0.457-1.643,0.69-2.474l-0.271-0.098c-0.435-0.149-0.859-0.304-1.265-0.477
		C480.331,406.353,480.606,407.371,480.771,408.397z M484.056,406.167c-0.49-0.047-0.971-0.104-1.479-0.188
		c-0.21,0.766-0.42,1.531-0.635,2.292C482.567,407.515,483.263,406.801,484.056,406.167z M483.967,396.664
		c0.257-0.952,0.509-1.899,0.761-2.865l-0.168,0.243l-0.383-0.131c-0.289-0.094-0.573-0.196-0.858-0.312
		C483.664,394.601,483.864,395.627,483.967,396.664z M487.01,393.714c-0.35-0.037-0.714-0.093-1.087-0.145
		c-0.145,0.536-0.29,1.083-0.435,1.624C485.96,394.667,486.464,394.176,487.01,393.714z M487.066,384.903
		c0.289-1.097,0.574-2.203,0.858-3.309c-0.084,0.126-0.145,0.224-0.145,0.224l-0.238,0.331l-0.378-0.126
		c-0.285-0.103-0.569-0.205-0.858-0.317c0.378,1.088,0.606,2.185,0.695,3.305C487.024,384.968,487.047,384.94,487.066,384.903z
		 M488.793,382.57c0.43-0.467,0.877-0.901,1.372-1.321c-0.098-0.01-0.21-0.028-0.308-0.047l-0.397-0.069l-0.051-0.401
		c0-0.01-0.023-0.159-0.038-0.43C489.181,381.048,488.989,381.809,488.793,382.57z M489.992,373.478
		c0.378-1.489,0.752-2.969,1.12-4.448c-0.116,0.188-0.191,0.304-0.22,0.336l-0.232,0.318l-0.379-0.122
		c-0.434-0.149-0.854-0.303-1.265-0.476C489.643,370.631,489.927,372.106,489.992,373.478z M491.411,372.292
		c0.742-1.223,1.741-2.437,3.104-3.528c-0.495-0.047-0.984-0.098-1.493-0.187l-0.401-0.065l-0.052-0.401
		c0-0.01-0.014-0.14-0.027-0.346C492.182,369.231,491.803,370.743,491.411,372.292z M493.124,360.97
		c0.312-1.26,0.62-2.511,0.924-3.762c-0.084,0.131-0.145,0.224-0.158,0.243l-0.233,0.326l-0.378-0.121
		c-0.294-0.098-0.574-0.205-0.868-0.322C492.857,358.609,493.059,359.822,493.124,360.97z M495.742,356.07l-0.052-0.401
		c0-0.037-0.022-0.205-0.037-0.485c-0.341,1.4-0.714,2.922-1.12,4.564c0.71-1.186,1.666-2.361,2.94-3.436
		c-0.435-0.051-0.878-0.098-1.335-0.177L495.742,356.07z M496.088,348.808c0.069-0.285,0.135-0.569,0.2-0.841l-0.261,0.075
		C496.064,348.303,496.068,348.56,496.088,348.808z M471.81,396.178c0.107,0.075,0.205,0.136,0.308,0.215
		c-0.032-0.177-0.061-0.354-0.089-0.532C471.954,395.968,471.879,396.076,471.81,396.178z M478.012,417.115
		c0.164-0.294,0.411-0.746,0.677-1.334c0.341-1.195,0.69-2.418,1.041-3.659c0.354-2.633-0.112-5.209-1.409-7.649l-0.822-1.545
		l1.555,0.821c0.645,0.331,1.344,0.645,2.081,0.91c0.262-0.438,0.724-1.288,1.116-2.418l0.2,0.047
		c0.215-0.803,0.438-1.614,0.658-2.427l-0.267-0.065c0.346-2.398,0.005-4.76-1.021-7.01l-0.621-1.363l1.35,0.654
		c0.555,0.261,1.063,0.48,1.567,0.662c0.29-0.476,0.803-1.438,1.214-2.711l0.373,0.084c0.196-0.775,0.401-1.536,0.606-2.311
		l-0.462-0.103c0.299-2.319-0.047-4.62-1.036-6.805l-0.616-1.354l1.345,0.644c0.541,0.267,1.055,0.481,1.563,0.677
		c0.83-1.372,3.514-6.58,0.299-12.643l-0.821-1.545l1.554,0.821c0.648,0.332,1.344,0.645,2.091,0.91
		c0.774-1.302,3.258-6.226,0.687-11.868l-0.621-1.363l1.349,0.653c0.556,0.262,1.064,0.481,1.573,0.673
		c0.639-1.083,2.436-4.569,1.638-8.892c-0.742-4.022-3.486-7.691-8.135-10.93c-0.709,1.745-2.6,7.084-1.312,11.938l0.396,1.498
		l-1.246-0.92c-0.266-0.205-0.546-0.401-0.825-0.597c-0.752,1.838-2.814,7.677-1.069,12.74l0.593,1.704l-1.442-1.097
		c-0.429-0.336-0.826-0.626-1.213-0.901c-0.705,1.736-2.595,7.071-1.312,11.911l0.396,1.502l-1.251-0.933
		c-0.266-0.196-0.531-0.393-0.821-0.589c-0.704,1.746-2.595,7.085-1.302,11.939l0.396,1.502l-1.251-0.924
		c-0.271-0.205-0.541-0.401-0.83-0.606c-0.742,1.839-2.81,7.687-1.064,12.75l0.588,1.704l-1.433-1.106
		c-0.438-0.327-0.826-0.616-1.214-0.9c-0.788,1.923-3.015,8.237-0.812,13.437C471.94,413.657,474.399,415.799,478.012,417.115z
		 M471.138,442.616c0.009,0.065,0.019,0.141,0.032,0.206c0.023,0.205,0.047,0.392,0.07,0.578c0.107-0.224,0.215-0.448,0.331-0.695
		c0.606-1.204,1.33-2.679,2.222-4.345c0.443-0.836,0.919-1.708,1.414-2.656c0.532-0.909,1.083-1.885,1.666-2.884
		c1.125-2.035,2.492-4.145,3.869-6.436c1.466-2.213,2.931-4.611,4.63-6.973c0.257-0.351,0.513-0.724,0.77-1.083
		c-1.75,0.514-3.682,0.653-5.806,0.392c-0.303-0.027-0.616-0.074-0.934-0.13l-0.363-0.057
		C476.149,428.457,473.387,437.09,471.138,442.616z M469.929,442.938c-0.159-0.49-0.322-0.989-0.509-1.521
		c-0.425-1.27-0.91-2.66-1.451-4.145c-0.061,0.309-0.131,0.626-0.196,0.905c0.084,0.495,0.168,0.99,0.247,1.456
		c0.294,1.681,0.49,3.155,0.663,4.369c0.069,0.499,0.121,0.952,0.168,1.362C469.187,444.669,469.546,443.858,469.929,442.938z
		 M470.638,441.146c-0.448-2.39-1.068-5.409-1.89-8.862c-0.173,1.428-0.364,2.706-0.561,3.826c0.289,0.892,0.574,1.755,0.84,2.567
		c0.28,0.915,0.532,1.792,0.775,2.613c0.116,0.392,0.229,0.774,0.331,1.139C470.297,442.028,470.461,441.589,470.638,441.146z
		 M470.708,444.543c0.112-0.266,0.252-0.541,0.392-0.854c-0.042-0.215-0.079-0.458-0.121-0.695c-0.14,0.345-0.28,0.681-0.42,1.008
		C470.61,444.174,470.656,444.362,470.708,444.543z M471.282,444.772c-0.042-0.252-0.089-0.522-0.136-0.812
		c-0.14,0.271-0.28,0.509-0.396,0.742c0.056,0.229,0.112,0.434,0.168,0.63C471.035,445.16,471.16,444.959,471.282,444.772z
		 M339.96,470.656c0.005,0.094,0.032,0.187,0.032,0.289c0,0.01,0,0.038,0,0.062v0.009c0,0,0,0,0,0.01
		c0.019,1.689-0.303,26.863-35.586,41.509c-10.17,4.229-13.189,7.635-13.937,9.764c-0.765,2.184,0.327,4.434,2.217,7.887
		c2.465,4.485,5.844,10.65-0.396,16.896c-0.593,0.588-1.396,0.919-2.235,0.919h-36.272c-1.741,0-3.155-1.419-3.155-3.154v-48.557
		c-0.543,0.023-1.085,0.032-1.605,0.032c-8.797,0-15.182-2.333-18.983-6.963c-3.225-3.921-3.603-8.289-3.467-10.921
		c-10.744-1.489-19.051-10.697-19.051-21.852v-45.728h-1.93c-1.741,0-3.155-1.419-3.155-3.15V393.63
		c0-1.745,1.414-3.155,3.155-3.155h48.192c1.738,0,3.155,1.41,3.155,3.155v14.076c0,1.731-1.417,3.15-3.155,3.15h-2.107v45.728
		c0,9.493-6.018,17.567-14.428,20.685c0,0.383-0.028,0.766-0.11,1.148c-0.04,0.215-0.436,2.558,1.085,4.326
		c1.862,2.185,6.27,3.271,12.382,3.038c0.014,0,0.019,0,0.028,0v-14.767c0-0.56,0.154-1.068,0.406-1.512
		c3.127-10.996,39.992-11.341,44.355-11.341C299.911,458.158,339.185,458.522,339.96,470.656z M248.524,404.542h2.098v-7.766H208.74
		v7.766h1.93H248.524z M232.491,472.075c7.313-1.363,12.875-7.785,12.875-15.495v-45.728h-31.54v45.728
		c0,8.7,7.068,15.775,15.765,15.775c0.243,0,0.483-0.028,0.716-0.038C231,472.084,231.737,472.004,232.491,472.075z
		 M332.086,478.968c-11.9,4.699-33.421,4.896-36.701,4.896c-3.439,0-27.06-0.215-38.452-5.676v63.496h31.694
		c1.666-2.23,0.849-4.229-1.476-8.471c-1.955-3.575-4.396-8.018-2.642-13.021c1.746-4.975,7.295-9.264,17.469-13.487
		C322.001,498.397,329.375,486.673,332.086,478.968z M333.547,471.015c-2.086-2.487-15.779-6.543-38.158-6.543
		c-22.362,0-36.067,4.061-38.15,6.543c2.088,2.483,15.793,6.539,38.15,6.539C317.768,477.554,331.461,473.494,333.547,471.015z
		 M269.333,471.552c0,1.853,11.474,3.341,25.632,3.341c14.154,0,25.627-1.493,25.627-3.341c0-1.83-11.473-3.328-25.627-3.328
		C280.807,468.224,269.333,469.722,269.333,471.552z M462.862,97.999c0-5.376,4.378-9.754,9.759-9.754
		c5.382,0,9.759,4.378,9.759,9.754c0,5.386-4.373,9.764-9.759,9.764C467.24,107.763,462.862,103.385,462.862,97.999z
		 M467.633,97.999c0,2.753,2.24,4.994,4.988,4.994c2.759,0,4.994-2.24,4.994-4.994c0-2.751-2.24-4.994-4.994-4.994
		C469.868,93.005,467.633,95.248,467.633,97.999z M436.508,102.993c2.758,0,4.989-2.24,4.989-4.994c0-2.751-2.231-4.984-4.989-4.984
		c-2.754,0-4.989,2.233-4.989,4.984C431.519,100.752,433.754,102.993,436.508,102.993z M391.681,60.627
		c-0.505-1.066-0.159-2.332,0.807-2.997l10.427-7.112c0.677-0.467,1.535-0.548,2.287-0.224l13.375,5.731
		c1.419-4.508,5.592-7.806,10.558-7.806c5.315,0,9.759,3.752,10.851,8.746h31.904c1.092-4.994,5.53-8.746,10.851-8.746
		c4.985,0,9.157,3.314,10.571,7.843l13.474-5.769c0.752-0.324,1.615-0.233,2.287,0.224l10.431,7.112
		c0.962,0.675,1.303,1.93,0.803,2.997l-6.613,13.982c-0.392,0.833-1.227,1.372-2.146,1.372h-10.066l-5.811,3.192l4.046,51.111
		c0.322,2.205,0.485,4.193,0.485,6.124c0,24.306-19.788,44.087-44.104,44.087c-24.312,0-44.086-19.781-44.086-44.087
		c0-1.93,0.154-3.918,0.495-6.275l4.019-50.864l-6.002-3.302h-10.067c-0.919,0-1.755-0.529-2.151-1.363L391.681,60.627z
		 M476.845,56.966h11.771c-0.942-2.331-3.225-3.976-5.88-3.976C480.07,52.99,477.788,54.635,476.845,56.966z M436.508,88.245
		c-5.381,0-9.759,4.378-9.759,9.754c0,5.386,4.378,9.764,9.759,9.764s9.759-4.378,9.759-9.764
		C446.267,92.623,441.889,88.245,436.508,88.245z M423.244,56.966h11.77c-0.942-2.331-3.22-3.976-5.88-3.976
		C426.469,52.99,424.195,54.635,423.244,56.966z M416.766,136.409c0,21.683,17.633,39.327,39.32,39.327
		c21.692,0,39.329-17.639,39.329-39.327c0-1.692-0.145-3.475-0.452-5.601l-4.187-52.794c-0.07-0.943,0.406-1.832,1.228-2.292
		l7.696-4.229c0.345-0.196,0.741-0.292,1.144-0.292h9.175l5.097-10.791l-7.673-5.239l-14.817,6.356
		c-0.299,0.128-0.616,0.187-0.938,0.187h-29.78c0.363,8.205,0.863,34.161-6.146,51.905c-2.423,6.123-6.301,10.156-11.528,11.987
		c-2.207,0.763-4.485,1.074-6.702,1.074c-8.298,0-15.803-4.278-16.204-4.497c-0.084-0.047-0.158-0.096-0.237-0.147l-3.006-2.252
		l-0.858,10.863C416.906,132.934,416.766,134.717,416.766,136.409z M447.699,163.459c2.581,0,4.677-2.093,4.677-4.669
		c0-2.585-2.096-4.679-4.677-4.679s-4.672,2.093-4.672,4.679C443.027,161.371,445.118,163.459,447.699,163.459z M469.317,154.116
		c-2.581,0-4.677,2.093-4.677,4.679c0,2.576,2.096,4.67,4.677,4.67s4.672-2.094,4.672-4.67
		C473.989,156.209,471.898,154.116,469.317,154.116z M125.545,84.054v17.66c0,1.379-1.118,2.488-2.495,2.488h-19.13
		c-1.381,0-2.495-1.108-2.495-2.488v-17.66c0-1.381,1.113-2.499,2.495-2.499h19.13C124.422,81.55,125.545,82.672,125.545,84.054z
		 M120.551,86.543h-14.136v12.664h14.136V86.543z M154.789,10.82c0.429,0.672,0.898,1.281,1.37,1.762
		c0.651,0.719,1.426,1.372,2.353,1.988c0.488,0.306,1.008,0.616,1.433,0.793c0.619,0.317,1.316,0.56,2.019,0.707
		c0.667,0.177,1.386,0.273,2.131,0.273c0.921,0,1.869-0.138,2.805-0.401c0.114-0.038,0.235-0.086,0.345-0.128l0.42-0.177
		c0.497-0.215,1.113-0.469,1.855-0.999c0.119-0.096,0.243-0.177,0.366-0.273c0.432-0.306,0.966-0.693,1.417-1.241l0.18-0.206
		c0.464-0.532,0.985-1.129,1.33-1.869l0.598-1.313c0.051-0.096,0.1-0.196,0.138-0.292c0.037-0.096,0.072-0.177,0.1-0.273
		l0.019,0.009l0.427-0.889c0.075-0.1,0.17-0.196,0.266-0.292l0.191-0.215c0.087-0.046,0.178-0.086,0.264-0.119l0.147-0.077
		c0.086-0.019,0.163-0.019,0.25-0.019c0.042-0.01,0.091-0.01,0.128-0.019c0.534,0.086,1.013,0.233,1.563,0.411
		c0.273,0.096,0.534,0.159,0.688,0.187c0.17,0.065,0.348,0.119,0.525,0.156c0.243,0.068,0.488,0.159,0.779,0.264
		c0.602,0.206,1.16,0.438,1.692,0.665l1.477,0.588c0.945,0.401,1.566,0.607,1.566,0.607c0.866,0.292,1.832,0.086,2.495-0.532
		l0.264-0.243c0.721-0.674,0.98-1.706,0.665-2.644l-0.259-0.672c-0.151-0.345-0.369-0.812-0.684-1.281
		c-0.392-0.637-0.884-1.253-1.456-1.85c-0.737-0.735-1.545-1.372-2.429-1.888c-0.501-0.282-1.05-0.579-1.624-0.763
		c-0.301-0.112-0.607-0.227-1.167-0.364c-0.31-0.058-0.635-0.11-0.889-0.128c-1.438-0.208-3.024,0.101-4.725,0.903
		c-0.115,0.046-0.236,0.109-0.341,0.196c-0.161,0.101-0.329,0.206-0.497,0.306c-0.375,0.233-0.74,0.458-1.26,0.88
		c-0.1,0.084-0.214,0.156-0.327,0.233c-0.371,0.261-0.74,0.539-1.003,0.812c-0.119,0.119-0.266,0.224-0.406,0.333
		c-0.311,0.264-0.616,0.511-0.817,0.719l-0.94,0.88c-0.067,0.038-0.121,0.084-0.177,0.128l-1.223,1.027
		c-0.03,0.019-0.053,0.049-0.082,0.067c-0.067,0.038-0.182,0.101-0.231,0.128c-0.21,0.138-0.406,0.273-0.786,0.502
		c-0.241,0.1-0.474,0.214-0.588,0.243c-0.105,0.021-0.21,0.049-0.31,0.077l-0.164,0.026c-0.364,0.019-0.621,0.075-1.132,0.009
		l-0.427-0.04c-0.191-0.047-0.383-0.086-0.612-0.11c-0.182-0.019-0.357-0.086-0.707-0.187c-0.478-0.119-0.921-0.292-1.342-0.439
		l-3.059-1.223c-0.898-0.373-1.927-0.187-2.644,0.467l-0.256,0.236c-0.707,0.653-0.98,1.661-0.698,2.574
		C153.855,9.028,154.124,9.8,154.789,10.82z M191.887,84.054v17.66c0,1.379-1.118,2.488-2.495,2.488h-19.13
		c-1.381,0-2.495-1.108-2.495-2.488v-17.66c0-1.381,1.113-2.499,2.495-2.499h19.13C190.77,81.55,191.887,82.672,191.887,84.054z
		 M186.894,86.543h-14.141v12.664h14.141V86.543z M80.809,122.961V92.732c0-1.379,1.113-2.499,2.494-2.499h6.135V58.777
		c0-0.812,0.396-1.566,1.066-2.035l24.334-17.072c0.761-0.539,1.76-0.607,2.585-0.175c0.829,0.43,1.344,1.291,1.344,2.222v12.263
		L139.17,39.67c0.765-0.539,1.764-0.607,2.585-0.175c0.831,0.43,1.342,1.291,1.342,2.222v12.263l20.412-14.309
		c0.761-0.539,1.754-0.607,2.585-0.175c0.828,0.43,1.344,1.291,1.344,2.222V72.78h3.589l4.382-57.057
		c0.101-1.305,1.186-2.303,2.49-2.303h13.917c1.313,0,2.403,1.017,2.49,2.322l3.836,57.043h7.031c1.377,0,2.495,1.108,2.495,2.49
		v14.972h2.413c0.004-0.009,0.014-0.009,0.023,0h0.025c1.379,0,2.495,1.111,2.495,2.49c0,0.168-0.021,0.336-0.054,0.497v29.731
		c0,1.382-1.113,2.49-2.49,2.49H83.308C81.926,125.451,80.809,124.342,80.809,122.961z M85.798,120.457h121.78V95.236h-2.408
		c-1.382,0-2.495-1.118-2.495-2.499V77.774h-6.863c-1.314,0-2.404-1.026-2.49-2.331l-3.843-57.034h-9.266l-4.383,57.053
		c-0.1,1.305-1.186,2.312-2.49,2.312h-8.396c-1.377,0-2.495-1.118-2.495-2.499V46.514l-20.407,14.309
		c-0.761,0.539-1.76,0.607-2.586,0.177c-0.828-0.432-1.349-1.29-1.349-2.224V46.514l-20.402,14.309
		c-0.758,0.539-1.757,0.607-2.581,0.177c-0.831-0.432-1.346-1.29-1.346-2.224V46.514L94.438,60.077v32.66
		c0,1.372-1.115,2.49-2.497,2.49h-6.144V120.457z M158.511,84.054v17.66c0,1.379-1.118,2.488-2.495,2.488h-19.135
		c-1.376,0-2.494-1.108-2.494-2.488v-17.66c0-1.381,1.118-2.499,2.494-2.499h19.135C157.393,81.55,158.511,82.672,158.511,84.054z
		 M153.517,86.543h-14.142v12.664h14.142V86.543z M179.487,322.009c-0.842,0.224-1.722,0.462-2.663,0.514
		c-0.665,0.084-1.349,0.168-2.051,0.261c-0.352,0.047-0.707,0.099-1.073,0.141l-1.09-0.01c-1.468-0.047-3.036,0.107-4.574-0.187
		c-0.789-0.098-1.582-0.187-2.38-0.294c-0.803-0.117-1.568-0.359-2.362-0.537c-1.615-0.316-3.143-0.914-4.693-1.488
		c-1.545-0.561-2.978-1.321-4.415-2.017c-1.358-0.812-2.753-1.517-3.939-2.398c-1.241-0.803-2.361-1.652-3.379-2.464
		c-1.036-0.794-1.902-1.625-2.709-2.324c-0.751-0.738-1.454-1.373-1.969-1.942c-1.071-1.097-1.615-1.806-1.615-1.806
		s0.378,0.803,1.19,2.138c0.387,0.672,0.926,1.446,1.519,2.37c0.651,0.868,1.335,1.9,2.203,2.94c0.847,1.055,1.792,2.185,2.887,3.3
		c1.038,1.186,2.303,2.24,3.561,3.436c1.354,1.078,2.728,2.254,4.277,3.253c1.55,0.998,3.125,2.053,4.866,2.837
		c0.866,0.411,1.696,0.887,2.59,1.232c0.903,0.336,1.801,0.667,2.69,0.989c1.783,0.747,3.647,1.018,5.449,1.47
		c0.448,0.094,0.898,0.196,1.337,0.299c0.455,0.047,0.898,0.099,1.328,0.141c0.898,0.084,1.759,0.168,2.606,0.252
		c1.71,0.242,3.297,0.121,4.789,0.074c0.119,0,0.233,0,0.343-0.009l3.461,12.881l9.28-22.141c0,0-17.894-12.946-18.696-12.938
		L179.487,322.009z M310.791,396.734l11.107-5.651c0.392,0.774,0.798,1.586,1.05,2.501c0.224,0.626,0.448,1.279,0.682,1.937
		c0.116,0.337,0.237,0.678,0.354,1.032l0.219,1.063c0.262,1.447,0.738,2.95,0.766,4.518c0.07,0.784,0.136,1.578,0.206,2.39
		c0.046,0.803-0.038,1.605-0.052,2.418c0.028,1.652-0.242,3.267-0.477,4.896c-0.232,1.629-0.686,3.192-1.068,4.742
		c-0.514,1.488-0.914,3.006-1.526,4.34c-0.531,1.382-1.129,2.66-1.717,3.818c-0.561,1.176-1.195,2.202-1.708,3.127
		c-0.57,0.896-1.046,1.703-1.498,2.333c-0.859,1.279-1.438,1.946-1.438,1.946s0.709-0.527,1.843-1.596
		c0.579-0.519,1.228-1.214,2.007-1.979c0.715-0.821,1.587-1.694,2.427-2.758c0.859-1.06,1.77-2.217,2.638-3.51
		c0.942-1.251,1.713-2.716,2.627-4.2c0.766-1.54,1.639-3.127,2.297-4.85c0.657-1.722,1.357-3.486,1.773-5.344
		c0.224-0.924,0.508-1.853,0.667-2.781c0.145-0.962,0.28-1.904,0.411-2.852c0.359-1.891,0.247-3.771,0.303-5.629
		c0.005-0.457,0.014-0.914,0.023-1.372c-0.051-0.448-0.098-0.896-0.14-1.32c-0.103-0.901-0.196-1.765-0.29-2.609
		c-0.111-1.722-0.564-3.257-0.914-4.699c-0.028-0.112-0.052-0.225-0.089-0.327l11.896-6.049l-23.583-4.508
		C319.593,375.765,310.618,395.95,310.791,396.734z M433.04,339.795c0.7,1.382,0.999,2.213,0.999,2.213s-0.107-0.883-0.49-2.39
		c-0.168-0.757-0.457-1.667-0.742-2.717c-0.359-1.026-0.695-2.222-1.218-3.472c-0.495-1.266-1.056-2.614-1.765-4.019
		c-0.635-1.438-1.521-2.828-2.371-4.336c-0.966-1.428-1.923-2.968-3.104-4.378c-1.176-1.419-2.366-2.902-3.789-4.172
		c-0.7-0.645-1.354-1.354-2.096-1.951c-0.771-0.588-1.517-1.167-2.282-1.745c-1.479-1.242-3.169-2.063-4.751-3.024
		c-0.401-0.225-0.799-0.457-1.195-0.7c-0.41-0.163-0.826-0.341-1.223-0.519c-0.83-0.345-1.633-0.695-2.408-1.017
		c-1.568-0.747-3.117-1.102-4.546-1.513c-0.116-0.027-0.224-0.065-0.336-0.084l0.556-13.329l-15.48,18.342
		c0,0,13.203,17.716,13.959,17.949l0.527-12.446c0.868,0.037,1.773,0.084,2.688,0.303c0.667,0.112,1.339,0.243,2.034,0.354
		c0.351,0.075,0.705,0.131,1.069,0.196l1.041,0.336c1.381,0.477,2.926,0.803,4.308,1.535c0.719,0.327,1.446,0.658,2.18,0.99
		c0.732,0.354,1.386,0.821,2.09,1.231c1.452,0.784,2.727,1.815,4.042,2.814c1.298,0.999,2.441,2.161,3.608,3.258
		c1.045,1.176,2.174,2.269,3.038,3.463c0.947,1.139,1.764,2.282,2.492,3.36c0.746,1.078,1.325,2.119,1.89,3.033
		C432.246,338.289,432.728,339.1,433.04,339.795z M390.653,145.575c1.031-0.252,1.933-0.501,2.684-0.644
		c1.513-0.327,2.395-0.411,2.395-0.411s-0.878-0.112-2.437-0.122c-0.779-0.028-1.727,0.03-2.818,0.04
		c-1.088,0.096-2.329,0.119-3.669,0.315c-1.339,0.156-2.8,0.364-4.326,0.698c-1.55,0.264-3.117,0.774-4.798,1.213
		c-1.624,0.588-3.351,1.127-5.017,1.92c-1.667,0.784-3.398,1.568-4.98,2.625c-0.803,0.511-1.647,0.978-2.413,1.547
		c-0.765,0.597-1.512,1.176-2.258,1.773c-1.573,1.108-2.796,2.548-4.121,3.848c-0.313,0.324-0.64,0.653-0.971,0.978
		c-0.271,0.354-0.547,0.709-0.812,1.057c-0.546,0.716-1.073,1.41-1.592,2.075c-1.105,1.332-1.844,2.744-2.59,4.032
		c-0.061,0.103-0.117,0.196-0.173,0.303l-12.77-3.867l13.903,19.574c0,0,20.447-8.363,20.862-9.047l-11.925-3.612
		c0.252-0.831,0.519-1.697,0.971-2.527c0.275-0.619,0.565-1.234,0.85-1.878c0.159-0.324,0.299-0.656,0.457-0.989l0.579-0.922
		c0.812-1.216,1.513-2.635,2.571-3.78c0.5-0.619,0.994-1.244,1.503-1.869c0.522-0.625,1.139-1.139,1.708-1.715
		c1.125-1.204,2.437-2.184,3.729-3.213c1.293-1.008,2.707-1.82,4.056-2.679c1.4-0.719,2.739-1.54,4.111-2.084
		c1.335-0.637,2.646-1.139,3.874-1.568C388.47,146.191,389.627,145.89,390.653,145.575z M185.216,187.532
		c0,0,0.259-22.094-0.201-22.74l-7.976,9.577c-0.67-0.558-1.363-1.146-1.944-1.878c-0.464-0.495-0.924-1.008-1.405-1.519
		c-0.24-0.273-0.488-0.521-0.728-0.803l-0.625-0.889c-0.808-1.223-1.841-2.427-2.49-3.846c-0.369-0.7-0.756-1.4-1.127-2.109
		c-0.369-0.726-0.602-1.496-0.915-2.25c-0.672-1.5-1.064-3.087-1.5-4.684c-0.429-1.578-0.625-3.204-0.894-4.779
		c-0.114-1.568-0.353-3.117-0.311-4.592c-0.065-1.477-0.019-2.886,0.067-4.182c0.047-1.304,0.225-2.49,0.329-3.556
		c0.173-1.048,0.292-1.979,0.46-2.714c0.287-1.531,0.548-2.371,0.548-2.371s-0.448,0.766-1.064,2.193
		c-0.327,0.707-0.646,1.605-1.062,2.614c-0.333,1.036-0.793,2.193-1.136,3.498c-0.369,1.295-0.751,2.714-1.039,4.268
		c-0.362,1.519-0.501,3.164-0.744,4.879c-0.096,1.724-0.273,3.526-0.187,5.367c0.077,1.841,0.119,3.743,0.483,5.61
		c0.156,0.942,0.256,1.893,0.483,2.831c0.252,0.931,0.497,1.848,0.753,2.772c0.416,1.876,1.263,3.563,1.937,5.29
		c0.18,0.42,0.357,0.84,0.521,1.272c0.224,0.392,0.448,0.782,0.658,1.165c0.451,0.774,0.88,1.531,1.295,2.271
		c0.798,1.549,1.809,2.772,2.702,3.958c0.07,0.096,0.133,0.187,0.21,0.283l-8.531,10.251L185.216,187.532z"/>
</g>
</svg>